# xmcd
#
# Track frame offsets:
#	150
#	26015
#	61826
#	106542
#	148082
#	160942
#	184528
#	210328
#
# Disc length: 3122 seconds
#
# Revision: 0
# Processed by: cddbd v1.5.2PL0 Copyright (c) Steve Scherf et al.
# Submitted via: audiograbber 1.83.01
#
DISCID=5f0c3008
DTITLE=Grateful Dead - 82-08-01 Zoo Amphitheatre, Oklahoma City OK
DYEAR=1900
DGENRE=
TTITLE0=Jack Straw
TTITLE1=They Love Each Other
TTITLE2=CC Rider
TTITLE3=Tennessee Jed
TTITLE4=Me and My Uncle
TTITLE5=Big River
TTITLE6=China Cat Sunflower
TTITLE7=I Know You Rider
EXTD=
EXTT0=
EXTT1=
EXTT2=
EXTT3=
EXTT4=
EXTT5=
EXTT6=
EXTT7=
PLAYORDER=
